# xmcd CD database file
#
# Track frame offsets:
#	150
#	22190
#	43752
#	65476
#	86465
#	115046
#	134368
#	155777
#	171072
#	186052
#	205492
#	226185
#	245483
#	266294
#
# Disc length: 3827 seconds
#
# Revision: 2
# Processed by: cddbd v1.5.1PL0 Copyright (c) Steve Scherf et al.
# Submitted via: CDex 1.51
#
DISCID=bf0ef10e
DTITLE=Various Artist - LOVE STORIES I[CDI)
DYEAR=1900
DGENRE=
TTITLE0=ラブ・ストーリーは突然に
TTITLE1=SAY YES
TTITLE2=LA LA LA LOVE SONG
TTITLE3=君がいるだけで
TTITLE4=CAN YOU CELEBRATE?
TTITLE5=Hello,my friend
TTITLE6=サボテンの花
TTITLE7=さすらい
TTITLE8=KNOCKIN'ON YOUR DOOR
TTITLE9=GLORIA
TTITLE10=How're you doing,Guys?
TTITLE11=抱きしめてTONIGHT
TTITLE12=You're the Only
TTITLE13=Always
EXTD=
EXTT0=
EXTT1=
EXTT2=
EXTT3=
EXTT4=
EXTT5=
EXTT6=
EXTT7=
EXTT8=
EXTT9=
EXTT10=
EXTT11=
EXTT12=
EXTT13=
PLAYORDER=
